<svg width="390" height="935" viewBox="0 0 390 935" fill="none" xmlns="http://www.w3.org/2000/svg">
<path d="M0.734619 0H389.265V873.836H0.734619V0Z" fill="#FDCEDF"/>
<path d="M154 907.389C365.5 494.547 154 354.357 154 -0.000125885" stroke="#EEB8CC" stroke-width="120"/>
<path d="M129.249 857.788C129.249 859.217 128.134 860.376 126.758 860.376C125.383 860.376 124.268 859.217 124.268 857.788C124.268 856.358 125.383 855.199 126.758 855.199C128.134 855.199 129.249 856.358 129.249 857.788Z" fill="#EEB8CC"/>
<ellipse cx="5.03077" cy="3.07713" rx="5.03077" ry="3.07713" transform="matrix(0.857485 -0.514509 0.48563 0.874164 120.282 848.988)" fill="#EEB8CC"/>
<ellipse cx="138.713" cy="852.611" rx="2.49058" ry="2.58838" fill="#EEB8CC"/>
<path d="M288.411 523.977C287.547 522.865 287.714 521.235 288.784 520.337C289.854 519.439 291.422 519.612 292.286 520.724C293.151 521.836 292.984 523.466 291.914 524.364C290.844 525.262 289.276 525.089 288.411 523.977Z" fill="#EEB8CC"/>
<path d="M288.411 523.977C287.547 522.865 287.714 521.235 288.784 520.337C289.854 519.439 291.422 519.612 292.286 520.724C293.151 521.836 292.984 523.466 291.914 524.364C290.844 525.262 289.276 525.089 288.411 523.977Z" fill="#EEB8CC"/>
<ellipse cx="5.15189" cy="3.00413" rx="5.15189" ry="3.00413" transform="matrix(-0.347632 0.937631 -0.928335 -0.371745 300.707 524.969)" fill="#EEB8CC"/>
<ellipse cx="5.15189" cy="3.00413" rx="5.15189" ry="3.00413" transform="matrix(-0.347632 0.937631 -0.928335 -0.371745 300.707 524.969)" fill="#EEB8CC"/>
<ellipse cx="2.52964" cy="2.55021" rx="2.52964" ry="2.55021" transform="matrix(-0.765927 0.642927 -0.613646 -0.789581 287.681 534.571)" fill="#EEB8CC"/>
<ellipse cx="2.52964" cy="2.55021" rx="2.52964" ry="2.55021" transform="matrix(-0.765927 0.642927 -0.613646 -0.789581 287.681 534.571)" fill="#EEB8CC"/>
<ellipse cx="6.22471" cy="3.96948" rx="6.22471" ry="3.96948" transform="matrix(-0.922191 0.386734 -0.389736 -0.920927 228.14 381.435)" fill="#EEB8CC"/>
<ellipse cx="6.22471" cy="3.96948" rx="6.22471" ry="3.96948" transform="matrix(-0.922191 0.386734 -0.389736 -0.920927 228.14 381.435)" fill="#EEB8CC"/>
<ellipse cx="3.16697" cy="3.25566" rx="3.16697" ry="3.25566" transform="matrix(-0.98841 -0.151808 0.0978627 -0.9952 208.234 377.062)" fill="#EEB8CC"/>
<ellipse cx="3.16697" cy="3.25566" rx="3.16697" ry="3.25566" transform="matrix(-0.98841 -0.151808 0.0978627 -0.9952 208.234 377.062)" fill="#EEB8CC"/>
<ellipse cx="6.26231" cy="3.95407" rx="6.26231" ry="3.95407" transform="matrix(-0.831129 -0.55608 0.500633 -0.86566 251.738 731.489)" fill="#EEB8CC"/>
<ellipse cx="6.26231" cy="3.95407" rx="6.26231" ry="3.95407" transform="matrix(-0.831129 -0.55608 0.500633 -0.86566 251.738 731.489)" fill="#EEB8CC"/>
<ellipse cx="3.26355" cy="3.16398" rx="3.26355" ry="3.16398" transform="matrix(-0.437845 -0.89905 0.862776 -0.505587 243.685 712.07)" fill="#EEB8CC"/>
<ellipse cx="3.26355" cy="3.16398" rx="3.26355" ry="3.16398" transform="matrix(-0.437845 -0.89905 0.862776 -0.505587 243.685 712.07)" fill="#EEB8CC"/>
<ellipse cx="3.26355" cy="3.16398" rx="3.26355" ry="3.16398" transform="matrix(-0.437845 -0.89905 0.862776 -0.505587 193.873 452.198)" fill="#EEB8CC"/>
<ellipse cx="3.26355" cy="3.16398" rx="3.26355" ry="3.16398" transform="matrix(-0.437845 -0.89905 0.862776 -0.505587 193.873 452.198)" fill="#EEB8CC"/>
<ellipse cx="9.33806" cy="4.99691" rx="9.33806" ry="4.99691" transform="matrix(-0.524348 -0.851504 0.722547 -0.691321 214.102 139.547)" fill="#EEB8CC"/>
<ellipse cx="9.33806" cy="4.99691" rx="9.33806" ry="4.99691" transform="matrix(-0.524348 -0.851504 0.722547 -0.691321 214.102 139.547)" fill="#EEB8CC"/>
<ellipse cx="9.33806" cy="4.99691" rx="9.33806" ry="4.99691" transform="matrix(-0.524348 -0.851504 0.722547 -0.691321 158.966 316.852)" fill="#EEB8CC"/>
<ellipse cx="9.33806" cy="4.99691" rx="9.33806" ry="4.99691" transform="matrix(-0.524348 -0.851504 0.722547 -0.691321 158.966 316.852)" fill="#EEB8CC"/>
<ellipse cx="9.1368" cy="5.09141" rx="9.1368" ry="5.09141" transform="matrix(-0.918374 -0.395715 0.208683 -0.977983 167.001 295.404)" fill="#EEB8CC"/>
<ellipse cx="9.1368" cy="5.09141" rx="9.1368" ry="5.09141" transform="matrix(-0.918374 -0.395715 0.208683 -0.977983 167.001 295.404)" fill="#EEB8CC"/>
<ellipse cx="4.9211" cy="3.86293" rx="4.9211" ry="3.86293" transform="matrix(-0.12514 -0.992139 0.991411 -0.130782 211.692 108.098)" fill="#EEB8CC"/>
<ellipse cx="4.9211" cy="3.86293" rx="4.9211" ry="3.86293" transform="matrix(-0.12514 -0.992139 0.991411 -0.130782 211.692 108.098)" fill="#EEB8CC"/>
<ellipse cx="4.16377" cy="4.62474" rx="4.16377" ry="4.62474" transform="matrix(0.679224 -0.733931 0.616134 0.787642 120.282 109.264)" fill="#EEB8CC"/>
<ellipse cx="4.16377" cy="4.62474" rx="4.16377" ry="4.62474" transform="matrix(0.679224 -0.733931 0.616134 0.787642 120.282 109.264)" fill="#EEB8CC"/>
<ellipse cx="2.92131" cy="1.70095" rx="2.92131" ry="1.70095" transform="matrix(-0.14796 0.988993 -0.995036 -0.099513 193.298 657.533)" fill="#EEB8CC"/>
<ellipse cx="2.92131" cy="1.70095" rx="2.92131" ry="1.70095" transform="matrix(-0.14796 0.988993 -0.995036 -0.099513 193.298 657.533)" fill="#EEB8CC"/>
<ellipse cx="1.48034" cy="1.39768" rx="1.48034" ry="1.39768" transform="matrix(-0.603019 0.797727 -0.796761 -0.604294 187.142 664.75)" fill="#EEB8CC"/>
<ellipse cx="1.48034" cy="1.39768" rx="1.48034" ry="1.39768" transform="matrix(-0.603019 0.797727 -0.796761 -0.604294 187.142 664.75)" fill="#EEB8CC"/>
<path d="M118.654 24.0996C119.79 23.2922 121.34 23.594 122.116 24.7736C122.893 25.9533 122.603 27.5641 121.468 28.3715C120.333 29.179 118.783 28.8772 118.006 27.6975C117.229 26.5179 117.519 24.907 118.654 24.0996Z" fill="#EEB8CC"/>
<path d="M118.654 24.0996C119.79 23.2922 121.34 23.594 122.116 24.7736C122.893 25.9533 122.603 27.5641 121.468 28.3715C120.333 29.179 118.783 28.8772 118.006 27.6975C117.229 26.5179 117.519 24.907 118.654 24.0996Z" fill="#EEB8CC"/>
<ellipse cx="5.01829" cy="3.08446" rx="5.01829" ry="3.08446" transform="matrix(-0.895081 -0.445903 0.418833 -0.908064 116.73 36.7598)" fill="#EEB8CC"/>
<ellipse cx="5.01829" cy="3.08446" rx="5.01829" ry="3.08446" transform="matrix(-0.895081 -0.445903 0.418833 -0.908064 116.73 36.7598)" fill="#EEB8CC"/>
<ellipse cx="2.55758" cy="2.52219" rx="2.55758" ry="2.52219" transform="matrix(-0.550017 -0.835153 0.814876 -0.579635 108.55 22.5046)" fill="#EEB8CC"/>
<ellipse cx="2.55758" cy="2.52219" rx="2.55758" ry="2.52219" transform="matrix(-0.550017 -0.835153 0.814876 -0.579635 108.55 22.5046)" fill="#EEB8CC"/>
<path d="M125.863 861.115C125.863 862.545 124.747 863.704 123.372 863.704C121.996 863.704 120.881 862.545 120.881 861.115C120.881 859.686 121.996 858.527 123.372 858.527C124.747 858.527 125.863 859.686 125.863 861.115Z" fill="#FDA1C3"/>
<ellipse cx="5.03077" cy="3.07713" rx="5.03077" ry="3.07713" transform="matrix(0.857485 -0.514509 0.48563 0.874164 116.896 852.315)" fill="#FDA1C3"/>
<ellipse cx="135.327" cy="855.939" rx="2.49058" ry="2.58838" fill="#FDA1C3"/>
<path d="M285.025 527.304C284.161 526.192 284.328 524.563 285.398 523.664C286.468 522.766 288.036 522.94 288.9 524.052C289.764 525.164 289.598 526.793 288.528 527.692C287.458 528.59 285.889 528.416 285.025 527.304Z" fill="#FDA1C3"/>
<path d="M285.025 527.304C284.161 526.192 284.328 524.563 285.398 523.664C286.468 522.766 288.036 522.94 288.9 524.052C289.764 525.164 289.598 526.793 288.528 527.692C287.458 528.59 285.889 528.416 285.025 527.304Z" fill="#FDA1C3"/>
<ellipse cx="5.15189" cy="3.00413" rx="5.15189" ry="3.00413" transform="matrix(-0.347632 0.937631 -0.928335 -0.371745 297.321 528.296)" fill="#FDA1C3"/>
<ellipse cx="5.15189" cy="3.00413" rx="5.15189" ry="3.00413" transform="matrix(-0.347632 0.937631 -0.928335 -0.371745 297.321 528.296)" fill="#FDA1C3"/>
<ellipse cx="2.52964" cy="2.55021" rx="2.52964" ry="2.55021" transform="matrix(-0.765927 0.642927 -0.613646 -0.789581 284.295 537.899)" fill="#FDA1C3"/>
<ellipse cx="2.52964" cy="2.55021" rx="2.52964" ry="2.55021" transform="matrix(-0.765927 0.642927 -0.613646 -0.789581 284.295 537.899)" fill="#FDA1C3"/>
<ellipse cx="6.22471" cy="3.96948" rx="6.22471" ry="3.96948" transform="matrix(-0.922191 0.386734 -0.389736 -0.920927 224.754 384.762)" fill="#FDA1C3"/>
<ellipse cx="6.22471" cy="3.96948" rx="6.22471" ry="3.96948" transform="matrix(-0.922191 0.386734 -0.389736 -0.920927 224.754 384.762)" fill="#FDA1C3"/>
<ellipse cx="3.16697" cy="3.25566" rx="3.16697" ry="3.25566" transform="matrix(-0.98841 -0.151808 0.0978627 -0.9952 204.848 380.389)" fill="#FDA1C3"/>
<ellipse cx="3.16697" cy="3.25566" rx="3.16697" ry="3.25566" transform="matrix(-0.98841 -0.151808 0.0978627 -0.9952 204.848 380.389)" fill="#FDA1C3"/>
<ellipse cx="6.26231" cy="3.95407" rx="6.26231" ry="3.95407" transform="matrix(-0.831129 -0.55608 0.500633 -0.86566 248.352 734.816)" fill="#FDA1C3"/>
<ellipse cx="6.26231" cy="3.95407" rx="6.26231" ry="3.95407" transform="matrix(-0.831129 -0.55608 0.500633 -0.86566 248.352 734.816)" fill="#FDA1C3"/>
<ellipse cx="3.26355" cy="3.16398" rx="3.26355" ry="3.16398" transform="matrix(-0.437845 -0.89905 0.862776 -0.505587 240.298 715.397)" fill="#FDA1C3"/>
<ellipse cx="3.26355" cy="3.16398" rx="3.26355" ry="3.16398" transform="matrix(-0.437845 -0.89905 0.862776 -0.505587 240.298 715.397)" fill="#FDA1C3"/>
<ellipse cx="3.26355" cy="3.16398" rx="3.26355" ry="3.16398" transform="matrix(-0.437845 -0.89905 0.862776 -0.505587 190.487 455.525)" fill="#FDA1C3"/>
<ellipse cx="3.26355" cy="3.16398" rx="3.26355" ry="3.16398" transform="matrix(-0.437845 -0.89905 0.862776 -0.505587 190.487 455.525)" fill="#FDA1C3"/>
<ellipse cx="9.33806" cy="4.99691" rx="9.33806" ry="4.99691" transform="matrix(-0.524348 -0.851504 0.722547 -0.691321 210.715 142.875)" fill="#FDA1C3"/>
<ellipse cx="9.33806" cy="4.99691" rx="9.33806" ry="4.99691" transform="matrix(-0.524348 -0.851504 0.722547 -0.691321 210.715 142.875)" fill="#FDA1C3"/>
<ellipse cx="9.33806" cy="4.99691" rx="9.33806" ry="4.99691" transform="matrix(-0.524348 -0.851504 0.722547 -0.691321 155.58 320.179)" fill="#FDA1C3"/>
<ellipse cx="9.33806" cy="4.99691" rx="9.33806" ry="4.99691" transform="matrix(-0.524348 -0.851504 0.722547 -0.691321 155.58 320.179)" fill="#FDA1C3"/>
<ellipse cx="9.1368" cy="5.09141" rx="9.1368" ry="5.09141" transform="matrix(-0.918374 -0.395715 0.208683 -0.977983 163.615 298.732)" fill="#FDA1C3"/>
<ellipse cx="9.1368" cy="5.09141" rx="9.1368" ry="5.09141" transform="matrix(-0.918374 -0.395715 0.208683 -0.977983 163.615 298.732)" fill="#FDA1C3"/>
<ellipse cx="4.9211" cy="3.86293" rx="4.9211" ry="3.86293" transform="matrix(-0.12514 -0.992139 0.991411 -0.130782 208.306 111.426)" fill="#FDA1C3"/>
<ellipse cx="4.9211" cy="3.86293" rx="4.9211" ry="3.86293" transform="matrix(-0.12514 -0.992139 0.991411 -0.130782 208.306 111.426)" fill="#FDA1C3"/>
<ellipse cx="4.16377" cy="4.62474" rx="4.16377" ry="4.62474" transform="matrix(0.679224 -0.733931 0.616134 0.787642 116.896 112.592)" fill="#FDA1C3"/>
<ellipse cx="4.16377" cy="4.62474" rx="4.16377" ry="4.62474" transform="matrix(0.679224 -0.733931 0.616134 0.787642 116.896 112.592)" fill="#FDA1C3"/>
<ellipse cx="2.92131" cy="1.70095" rx="2.92131" ry="1.70095" transform="matrix(-0.14796 0.988993 -0.995036 -0.099513 189.912 660.86)" fill="#FDA1C3"/>
<ellipse cx="2.92131" cy="1.70095" rx="2.92131" ry="1.70095" transform="matrix(-0.14796 0.988993 -0.995036 -0.099513 189.912 660.86)" fill="#FDA1C3"/>
<ellipse cx="1.48034" cy="1.39768" rx="1.48034" ry="1.39768" transform="matrix(-0.603019 0.797727 -0.796761 -0.604294 183.755 668.077)" fill="#FDA1C3"/>
<ellipse cx="1.48034" cy="1.39768" rx="1.48034" ry="1.39768" transform="matrix(-0.603019 0.797727 -0.796761 -0.604294 183.755 668.077)" fill="#FDA1C3"/>
<path d="M115.268 27.427C116.403 26.6196 117.953 26.9213 118.73 28.101C119.507 29.2807 119.217 30.8915 118.082 31.6989C116.947 32.5064 115.397 32.2046 114.62 31.0249C113.843 29.8452 114.133 28.2344 115.268 27.427Z" fill="#FDA1C3"/>
<path d="M115.268 27.427C116.403 26.6196 117.953 26.9213 118.73 28.101C119.507 29.2807 119.217 30.8915 118.082 31.6989C116.947 32.5064 115.397 32.2046 114.62 31.0249C113.843 29.8452 114.133 28.2344 115.268 27.427Z" fill="#FDA1C3"/>
<ellipse cx="5.01829" cy="3.08446" rx="5.01829" ry="3.08446" transform="matrix(-0.895081 -0.445903 0.418833 -0.908064 113.344 40.0869)" fill="#FDA1C3"/>
<ellipse cx="5.01829" cy="3.08446" rx="5.01829" ry="3.08446" transform="matrix(-0.895081 -0.445903 0.418833 -0.908064 113.344 40.0869)" fill="#FDA1C3"/>
<ellipse cx="2.55758" cy="2.52219" rx="2.55758" ry="2.52219" transform="matrix(-0.550017 -0.835153 0.814876 -0.579635 105.164 25.8323)" fill="#FDA1C3"/>
<ellipse cx="2.55758" cy="2.52219" rx="2.55758" ry="2.52219" transform="matrix(-0.550017 -0.835153 0.814876 -0.579635 105.164 25.8323)" fill="#FDA1C3"/>
</svg>
