<svg width="50" height="50" viewBox="0 0 50 50" fill="none" xmlns="http://www.w3.org/2000/svg">
<path d="M32.4915 3.5C32.4915 3.5 33.0295 10.9375 25.5 12H25.5085C25.5085 12 24.9705 4.5625 32.5 3.5H32.4915Z" fill="#E3E3E4"/>
<path d="M36.5 24.6565C36.5 20.862 38.3625 17.5985 41 16.0875C39.2545 14.1565 36.7755 13 34.25 13C30.75 13 28.875 15.5 26 15.5C23.125 15.5 21.25 13 17.75 13C13 13 8.5 17.0625 8.5 22.75C8.5 27.25 9.523 31.707 11.0625 34.75C13.75 40.0625 17.25 42.5 19.25 42.5C21.5 42.5 22.594 41 26 41C29.406 41 30.5 42.5 32.75 42.5C34.75 42.5 38.25 40.0625 40.9375 34.75C41.136 34.357 41.3195 33.94 41.5 33.503C38.576 32.148 36.5 28.7035 36.5 24.6565Z" fill="#E3E3E4"/>
<path d="M25.5085 12.5001C25.246 12.5001 25.024 12.2971 25.0055 12.0351C25.0035 12.0081 25.004 11.9821 25.006 11.9561C24.977 11.1221 24.961 4.0826 32.392 3.0101C32.413 3.0056 32.4345 3.0026 32.4565 3.0011C32.4615 3.0011 32.467 3.0006 32.472 3.0006C32.7305 2.9676 32.9585 3.1701 32.995 3.4296C33.002 3.4781 33.0015 3.5251 32.995 3.5711C33.0225 4.5211 32.9625 11.4251 25.6115 12.4886C25.578 12.4961 25.5435 12.5001 25.5085 12.5001ZM31.9995 4.0916C26.649 5.1481 26.045 9.7836 26.0005 11.4086C31.351 10.3521 31.955 5.7166 31.9995 4.0916Z" fill="#1F212B"/>
<path d="M32.75 43C31.6475 43 30.812 42.6755 29.927 42.332C28.874 41.923 27.785 41.5 26 41.5C24.215 41.5 23.126 41.923 22.073 42.332C21.188 42.6755 20.3525 43 19.25 43C17.047 43 13.4055 40.489 10.616 34.9755C8.978 31.738 8 27.1675 8 22.75C8 17.098 12.374 12.5 17.75 12.5C19.703 12.5 21.198 13.2405 22.5175 13.894C23.6655 14.463 24.75 15 26 15C27.25 15 28.3345 14.463 29.4825 13.894C30.802 13.2405 32.297 12.5 34.25 12.5C36.9065 12.5 39.5025 13.6855 41.371 15.752C41.472 15.8645 41.5175 16.0165 41.4935 16.166C41.47 16.3155 41.3795 16.4465 41.2485 16.5215C38.6675 17.9995 37 21.193 37 24.6565C37 28.3715 38.893 31.7445 41.71 33.0495C41.953 33.1625 42.0645 33.4465 41.962 33.694C41.748 34.212 41.5645 34.6195 41.384 34.9755C38.5945 40.489 34.953 43 32.75 43ZM26 40.5C27.9725 40.5 29.2035 40.978 30.2895 41.4C31.1185 41.7215 31.835 42 32.75 42C34.342 42 37.717 40.0095 40.491 34.5245C40.6075 34.2935 40.727 34.038 40.8565 33.7395C37.891 32.134 36 28.6275 36 24.6565C36 21.0835 37.6355 17.7575 40.2135 15.992C38.5765 14.4015 36.434 13.5 34.25 13.5C32.531 13.5 31.207 14.156 29.9265 14.79C28.7255 15.385 27.484 16 26 16C24.516 16 23.2745 15.385 22.0735 14.79C20.793 14.156 19.469 13.5 17.75 13.5C13.542 13.5 9 17.0365 9 22.75C9 27.018 9.938 31.4195 11.509 34.5245C14.283 40.0095 17.658 42 19.25 42C20.165 42 20.8815 41.7215 21.7105 41.4C22.7965 40.978 24.0275 40.5 26 40.5Z" fill="#1F212B"/>
<path d="M16.75 38.3596C16.6865 38.3596 16.6235 38.3356 16.5745 38.2876C15.3575 37.0901 14.253 35.5206 13.293 33.6211C12.007 31.0796 11.1575 27.3926 11.021 23.7591C11.016 23.6216 11.1235 23.5051 11.2615 23.4996C11.397 23.4966 11.5155 23.6026 11.521 23.7401C11.6545 27.3051 12.484 30.9141 13.7395 33.3951C14.6755 35.2456 15.7475 36.7716 16.9255 37.9306C17.024 38.0271 17.025 38.1861 16.9285 38.2841C16.8795 38.3346 16.8145 38.3596 16.75 38.3596Z" fill="#1F212B"/>
<path d="M11.5175 20.9999C11.496 20.9999 11.474 20.9969 11.452 20.9909C11.3185 20.9549 11.24 20.8174 11.276 20.6844C11.5955 19.5064 12.2035 18.4309 13.036 17.5754C13.1325 17.4764 13.291 17.4744 13.3895 17.5704C13.4885 17.6664 13.4905 17.8249 13.3945 17.9239C12.6215 18.7189 12.056 19.7184 11.759 20.8149C11.7285 20.9269 11.628 20.9999 11.5175 20.9999Z" fill="#1F212B"/>
<path d="M14.25 17.1261C14.1705 17.1261 14.092 17.0881 14.0435 17.0171C13.966 16.9026 13.995 16.7476 14.109 16.6696C14.589 16.3421 15.1125 16.0756 15.666 15.8781C15.7965 15.8326 15.939 15.8991 15.9855 16.0296C16.032 16.1596 15.964 16.3026 15.834 16.3491C15.321 16.5321 14.8355 16.7791 14.391 17.0831C14.3475 17.1121 14.299 17.1261 14.25 17.1261Z" fill="#1F212B"/>
<path d="M16.7495 16.0955C16.631 16.0955 16.525 16.01 16.504 15.889C16.48 15.753 16.571 15.6235 16.7065 15.5995C16.88 15.5685 17.0535 15.543 17.2275 15.527C17.357 15.5195 17.4865 15.616 17.499 15.7535C17.511 15.8905 17.41 16.0125 17.2725 16.025C17.1125 16.0395 16.953 16.0635 16.7935 16.0915C16.779 16.0945 16.764 16.0955 16.7495 16.0955Z" fill="#1F212B"/>
</svg>
