<svg width="45" height="45" viewBox="0 0 45 45" fill="none" xmlns="http://www.w3.org/2000/svg">
<path d="M31.7576 33.0705C33.4766 31.5574 34.8075 29.6381 35.6254 27.4815C35.8357 26.9291 35.9865 26.4634 36.1012 26.0156L36.2812 25.3125H23.0625V18.5625H42.9322C43.1854 19.8754 43.3125 21.1984 43.3125 22.5C43.3125 28.1306 40.9849 33.5632 36.909 37.485L31.7576 33.0705Z" fill="#8BB7F0"/>
<path d="M42.462 19.125C42.6532 20.2522 42.75 21.384 42.75 22.5C42.75 27.8089 40.6226 32.9366 36.882 36.7211L32.6048 33.0548C34.1629 31.5551 35.3779 29.7202 36.1519 27.6806C36.3679 27.1114 36.5254 26.6265 36.6469 26.1562L37.0091 24.75H35.5568H23.625V19.125H42.462ZM43.3913 18H22.5V25.875H35.5579C35.4341 26.3565 35.2744 26.8223 35.1011 27.2812C34.2326 29.5695 32.769 31.5653 30.8891 33.0649L36.927 38.2399C41.1874 34.3328 43.875 28.737 43.875 22.5C43.875 20.9554 43.7029 19.4524 43.3913 18Z" fill="#4E7AB5"/>
<path d="M36.9315 24.75C36.3679 28.3849 34.4846 31.5844 31.7632 33.8153L36.0664 37.503C39.6382 34.2709 42.0615 29.7945 42.6229 24.75H36.9315Z" fill="#8BB7F0"/>
<path d="M22.5 43.3124C14.7341 43.3124 7.73099 39.0678 4.10736 32.2008L9.68399 28.2644C11.9531 33.3292 16.9099 36.5624 22.5 36.5624C25.5521 36.5624 28.4366 35.605 30.8689 33.7893L36.0709 38.2477C32.2819 41.5192 27.4882 43.3124 22.5 43.3124Z" fill="#BAE0BD"/>
<path d="M9.46238 29.1094C11.9385 34.0222 16.9144 37.125 22.5 37.125C25.524 37.125 28.3883 36.2216 30.8396 34.5049L35.2001 38.2421C31.5968 41.1581 27.135 42.75 22.5 42.75C15.1088 42.75 8.42738 38.7979 4.84088 32.3719L9.46238 29.1094ZM9.9315 27.4016L3.384 32.0231C6.88838 39.042 14.121 43.875 22.5 43.875C28.0676 43.875 33.1223 41.7285 36.9259 38.2399L30.888 33.0649C28.5874 34.9009 25.6748 36 22.5 36C16.7749 36 11.8946 32.4304 9.9315 27.4016Z" fill="#5E9C76"/>
<path d="M31.7633 33.8153C29.241 35.883 26.0156 37.125 22.5 37.125C16.4171 37.125 11.2039 33.4091 9.00001 28.125L4.35376 31.4438C7.65788 38.1364 14.5316 42.75 22.5 42.75C27.7256 42.75 32.4743 40.7531 36.0664 37.503L31.7633 33.8153Z" fill="#BAE0BD"/>
<path d="M4.37738 12.2704C8.07413 5.73075 14.9738 1.6875 22.5 1.6875C27.5546 1.6875 32.4 3.5235 36.2093 6.87037L31.4708 11.6089C28.9766 9.56025 25.812 8.4375 22.5 8.4375C17.055 8.4375 12.1545 11.5459 9.82013 16.4171L4.37738 12.2704Z" fill="#F78F8F"/>
<path d="M22.5 2.25C27.2171 2.25 31.7475 3.89475 35.3801 6.903L31.4258 10.8574C28.899 8.92688 25.7681 7.875 22.5 7.875C17.0685 7.875 12.159 10.8484 9.62439 15.561L5.11314 12.1241C8.76489 6.00975 15.3416 2.25 22.5 2.25ZM22.5 1.125C14.3393 1.125 7.25176 5.7015 3.65063 12.4245L10.0429 17.2946C12.0803 12.4234 16.8896 9 22.5 9C25.9414 9 29.1161 10.2555 31.5 12.375L37.0249 6.85013C33.21 3.3075 28.116 1.125 22.5 1.125Z" fill="#C74343"/>
<path d="M22.5 7.875V2.25C14.7037 2.25 7.94699 6.66225 4.56299 13.1198L9.12599 16.596C11.3962 11.4626 16.5251 7.875 22.5 7.875Z" fill="#F78F8F"/>
<path d="M3.63937 31.2626C2.34337 28.4894 1.6875 25.5453 1.6875 22.4999C1.6875 19.3072 2.43113 16.1324 3.84413 13.2783L9.36225 17.4824C8.748 19.0856 8.4375 20.7708 8.4375 22.4999C8.4375 24.1143 8.71762 25.7073 9.27 27.2407L3.63937 31.2626Z" fill="#FFEEA3"/>
<path d="M4.0545 14.1458L8.69062 17.6783C8.1495 19.2263 7.875 20.8441 7.875 22.5001C7.875 24.0379 8.11912 25.5567 8.60175 27.0271L3.87225 30.4054C2.7945 27.8899 2.25 25.2361 2.25 22.5001C2.25 19.6212 2.871 16.7592 4.0545 14.1458ZM3.65062 12.4246C2.04187 15.4272 1.125 18.8551 1.125 22.5001C1.125 25.9594 1.96537 29.2163 3.4245 32.1076L9.94838 27.4478C9.34313 25.9144 9 24.2483 9 22.5001C9 20.6551 9.37238 18.8967 10.0429 17.2947L3.65062 12.4246Z" fill="#BA9B48"/>
<path d="M7.875 22.4999C7.875 20.3973 8.32725 18.4026 9.126 16.5959L4.563 13.1196C3.09263 15.9254 2.25 19.1125 2.25 22.4999C2.25 25.7151 3.0195 28.7436 4.35262 31.4448L9 28.1249C8.27663 26.3935 7.875 24.4934 7.875 22.4999Z" fill="#FFEEA3"/>
</svg>
