<svg width="55" height="55" viewBox="0 0 55 55" fill="none" xmlns="http://www.w3.org/2000/svg">
<path d="M37.95 45.0999H17.05C13.101 45.0999 9.89999 41.8989 9.89999 37.9499V17.0499C9.89999 13.1009 13.101 9.8999 17.05 9.8999H37.95C41.899 9.8999 45.1 13.1009 45.1 17.0499V37.9499C45.1 41.8989 41.899 45.0999 37.95 45.0999Z" fill="#78A2D2"/>
<path d="M36.575 42.9001H18.425C14.9375 42.9001 12.1 40.0626 12.1 36.5751V18.4251C12.1 14.9375 14.9375 12.1001 18.425 12.1001H36.575C36.7692 12.1001 36.9595 12.1122 37.1492 12.1292C37.3005 12.1424 37.4127 12.2766 37.3989 12.4273C37.3852 12.5791 37.2427 12.6836 37.1008 12.677C36.9276 12.6616 36.7527 12.6501 36.575 12.6501H18.425C15.2405 12.6501 12.65 15.2406 12.65 18.4251V36.5751C12.65 39.7596 15.2405 42.3501 18.425 42.3501H36.575C39.7595 42.3501 42.35 39.7596 42.35 36.5751V27.2251C42.35 27.0733 42.4732 26.9501 42.625 26.9501C42.7768 26.9501 42.9 27.0733 42.9 27.2251V36.5751C42.9 40.0626 40.0626 42.9001 36.575 42.9001Z" fill="#1F212B"/>
<path d="M42.625 22.0001C42.4732 22.0001 42.35 21.8769 42.35 21.7251V20.6251C42.35 20.4733 42.4732 20.3501 42.625 20.3501C42.7768 20.3501 42.9 20.4733 42.9 20.6251V21.7251C42.9 21.8769 42.7768 22.0001 42.625 22.0001Z" fill="#1F212B"/>
<path d="M42.625 25.8501C42.4732 25.8501 42.35 25.7269 42.35 25.5751V23.3751C42.35 23.2233 42.4732 23.1001 42.625 23.1001C42.7768 23.1001 42.9 23.2233 42.9 23.3751V25.5751C42.9 25.7269 42.7768 25.8501 42.625 25.8501Z" fill="#1F212B"/>
<path d="M37.95 45.6501H17.05C12.804 45.6501 9.35001 42.1961 9.35001 37.9501V17.0501C9.35001 12.8041 12.804 9.3501 17.05 9.3501H37.95C42.196 9.3501 45.65 12.8041 45.65 17.0501V37.9501C45.65 42.1961 42.196 45.6501 37.95 45.6501ZM17.05 10.4501C13.4107 10.4501 10.45 13.4107 10.45 17.0501V37.9501C10.45 41.5894 13.4107 44.5501 17.05 44.5501H37.95C41.5894 44.5501 44.55 41.5894 44.55 37.9501V17.0501C44.55 13.4107 41.5894 10.4501 37.95 10.4501H17.05Z" fill="#1F212B"/>
<path d="M37.6217 22.6011C37.6613 22.4757 37.6778 22.3574 37.6745 22.2518C37.6613 21.9455 37.449 21.7249 36.9523 21.7249H34.7331C34.1732 21.7249 33.9152 22.061 33.7629 22.4003C33.7629 22.4003 32.5358 25.0799 31.0503 26.9499C30.9694 27.0517 30.3875 27.7749 29.425 27.7749C29.2875 27.7749 28.875 27.7062 28.875 27.0874V22.5813C28.875 21.995 28.7293 21.7249 28.2557 21.7249H24.475C24.1307 21.7249 23.925 22.0049 23.925 22.2749C23.925 22.8381 25.025 22.8249 25.0234 24.3913V27.4482C25.0234 28.1896 24.8941 28.3244 24.6125 28.3244C23.8607 28.3244 22.3064 25.9412 21.3131 22.6236C21.098 21.9713 20.8824 21.7244 20.3192 21.7244H18.0802C17.4345 21.7244 17.325 22.0406 17.325 22.3767C17.325 22.9861 17.8349 26.274 20.6107 30.0525C22.6243 32.7931 25.2775 34.3744 27.626 34.3744C28.3256 34.3744 28.8756 34.0306 28.8756 33.2744V30.762C28.875 30.2499 29.2463 29.9749 29.7 29.9749C30.25 29.9749 30.7852 30.3693 32.0573 31.8449C33.5247 33.5483 33.7898 34.3749 34.6308 34.3749H36.85C37.3665 34.3749 37.6613 34.161 37.6745 33.7424C37.6778 33.6368 37.6613 33.5186 37.6283 33.3833C37.4627 32.8993 36.7994 31.7129 35.8589 30.5799C35.3392 29.954 34.8222 29.3314 34.5873 28.9954C34.4284 28.7748 34.369 28.6197 34.3756 28.4718C34.3822 28.3167 34.4652 28.1687 34.5873 27.9614C34.5637 27.9608 37.3401 23.9519 37.6217 22.6011Z" fill="white"/>
<path d="M37.6217 22.6011C37.6613 22.4757 37.6778 22.3574 37.6745 22.2518C37.6613 21.9455 37.449 21.7249 36.9523 21.7249H34.7331C34.1732 21.7249 33.9152 22.061 33.7629 22.4003C33.7629 22.4003 32.5358 25.0799 31.0503 26.9499C30.9694 27.0517 30.3875 27.7749 29.425 27.7749C29.2875 27.7749 28.875 27.7062 28.875 27.0874V22.5813C28.875 21.995 28.7293 21.7249 28.2557 21.7249H24.475C24.1307 21.7249 23.925 22.0049 23.925 22.2749C23.925 22.8381 25.025 22.8249 25.0234 24.3913V27.4482C25.0234 28.1896 24.8941 28.3244 24.6125 28.3244C23.8607 28.3244 22.3064 25.9412 21.3131 22.6236C21.098 21.9713 20.8824 21.7244 20.3192 21.7244H18.0802C17.4345 21.7244 17.325 22.0406 17.325 22.3767C17.325 22.9861 17.8349 26.274 20.6107 30.0525C22.6243 32.7931 25.2775 34.3744 27.626 34.3744C28.3256 34.3744 28.8756 34.0306 28.8756 33.2744V30.762C28.875 30.2499 29.2463 29.9749 29.7 29.9749C30.25 29.9749 30.7852 30.3693 32.0573 31.8449C33.5247 33.5483 33.7898 34.3749 34.6308 34.3749H36.85C37.3665 34.3749 37.6613 34.161 37.6745 33.7424C37.6778 33.6368 37.6613 33.5186 37.6283 33.3833C37.4627 32.8993 36.7994 31.7129 35.8589 30.5799C35.3392 29.954 34.8222 29.3314 34.5873 28.9954C34.4284 28.7748 34.369 28.6197 34.3756 28.4718C34.3822 28.3167 34.4652 28.1687 34.5873 27.9614C34.5637 27.9608 37.3401 23.9519 37.6217 22.6011Z" stroke="#1F212B" stroke-miterlimit="10" stroke-linecap="round"/>
</svg>
